<?xml version="1.0" standalone="no"?>
<!DOCTYPE svg PUBLIC "-//W3C//DTD SVG 20010904//EN"
 "http://www.w3.org/TR/2001/REC-SVG-20010904/DTD/svg10.dtd">
<svg version="1.0" xmlns="http://www.w3.org/2000/svg"
 width="480.000000pt" height="480.000000pt" viewBox="0 0 480.000000 480.000000"
 preserveAspectRatio="xMidYMid meet">
<metadata>
Created by potrace 1.14, written by Peter Selinger 2001-2017
</metadata>
<g transform="translate(0.000000,480.000000) scale(0.100000,-0.100000)"
fill="#000000" stroke="none">
<path d="M1585 4374 c-200 -30 -355 -78 -507 -155 -226 -117 -416 -285 -560
-497 -75 -111 -280 -524 -316 -638 -102 -320 -102 -624 -1 -940 16 -50 29
-103 29 -117 0 -14 15 -43 32 -65 18 -22 49 -69 68 -103 91 -163 259 -349 418
-462 114 -82 268 -160 407 -206 178 -60 279 -75 485 -75 198 0 301 15 457 66
117 39 150 38 196 -5 36 -34 197 -127 587 -337 135 -73 279 -152 321 -177 l76
-45 59 -120 c32 -66 63 -122 67 -125 14 -8 997 420 997 434 0 8 -9 31 -20 52
l-19 39 179 77 c99 43 180 79 180 80 0 2 -43 99 -96 216 l-95 214 1 96 c2 173
-28 264 -242 739 -63 140 -126 282 -140 314 -22 54 -30 62 -83 90 -53 28 -68
31 -149 31 -79 0 -98 -4 -141 -27 l-50 -26 -40 21 c-62 33 -173 31 -246 -5
l-55 -28 -48 18 -47 19 -3 164 c-4 183 -23 304 -75 458 -168 501 -588 876
-1116 997 -103 23 -146 27 -300 30 -99 1 -193 0 -210 -2z m280 -204 c106 -13
265 -48 265 -60 0 -12 -143 -143 -218 -199 l-66 -49 -65 57 c-84 73 -169 138
-250 189 -74 46 -74 46 55 61 101 12 178 12 279 1z m-527 -132 c117 -65 298
-194 345 -245 17 -19 15 -21 -90 -71 -107 -50 -331 -132 -365 -132 -16 0 -18
11 -18 83 0 92 22 252 46 339 9 32 18 58 20 58 3 0 30 -14 62 -32z m1015 -14
c122 -62 281 -187 377 -298 91 -104 189 -261 173 -276 -10 -9 -595 -262 -597
-258 0 2 -27 56 -59 120 -65 131 -145 258 -230 363 -31 39 -57 72 -57 75 0 3
30 27 68 55 37 27 110 93 162 146 52 54 99 98 103 98 4 1 31 -11 60 -25z
m-1280 -86 c-8 -35 -16 -136 -20 -225 l-6 -162 -26 -5 c-71 -15 -207 -26 -308
-26 l-113 0 30 48 c49 80 156 206 227 269 65 58 209 163 223 163 4 0 0 -28 -7
-62z m819 -361 c83 -103 179 -254 230 -365 22 -46 38 -85 36 -86 -1 -2 -160
-72 -352 -156 -192 -83 -365 -159 -383 -168 -30 -14 -35 -14 -43 -2 -18 28
-89 255 -114 360 -25 105 -51 259 -44 264 2 2 53 18 113 35 129 38 325 117
410 166 33 18 65 34 70 34 6 1 40 -36 77 -82z m-827 -224 c35 -206 68 -343
121 -494 20 -57 40 -111 45 -121 6 -10 4 -18 -4 -21 -6 -3 -169 -75 -360 -161
-192 -86 -352 -156 -357 -156 -10 0 -47 126 -64 220 -42 224 -22 481 53 681
l21 56 198 7 c108 4 220 10 247 15 92 15 93 15 100 -26z m1931 -100 c40 -139
46 -174 51 -348 3 -99 2 -177 -2 -173 -3 3 -29 53 -56 110 -64 135 -77 150
-150 187 -108 54 -234 39 -323 -40 -24 -22 -55 -61 -68 -88 l-25 -48 -31 95
c-17 53 -30 96 -29 97 4 2 612 264 614 265 1 0 9 -26 19 -57z m-776 -278 c0
-3 16 -58 36 -123 43 -141 71 -266 88 -387 l12 -90 -160 -52 c-87 -29 -218
-82 -290 -117 l-131 -65 -39 42 c-56 61 -190 265 -242 369 -25 50 -44 91 -42
93 2 1 152 68 333 148 182 79 350 154 375 165 48 22 60 25 60 17z m558 -54
c36 -18 45 -34 141 -243 57 -123 109 -230 116 -238 6 -8 53 -109 104 -225 51
-115 94 -211 95 -213 2 -1 28 9 59 23 44 19 55 28 50 41 -3 10 -55 126 -114
258 -92 207 -105 243 -93 255 20 21 122 26 164 9 33 -14 41 -28 149 -277 91
-207 118 -261 130 -256 56 20 101 41 101 46 0 4 -47 114 -105 245 -58 131
-103 244 -101 251 7 17 84 36 122 29 60 -12 76 -36 188 -284 l109 -241 51 20
c28 11 54 23 57 27 3 4 -38 106 -92 227 -54 121 -98 223 -98 227 -1 3 19 14
44 23 72 28 156 6 180 -47 8 -18 71 -159 141 -313 207 -458 248 -587 227 -718
l-11 -62 79 -176 c44 -97 79 -180 79 -185 0 -5 -53 -31 -118 -59 -64 -27 -286
-122 -492 -212 -206 -90 -380 -163 -385 -163 -6 0 -35 52 -65 116 -37 79 -63
123 -84 139 -17 13 -204 116 -416 230 -428 231 -557 307 -572 341 -42 91 102
216 231 201 25 -3 109 -33 187 -66 77 -34 155 -61 172 -61 28 0 32 3 32 28 0
54 -32 136 -192 485 -88 194 -191 420 -229 503 -82 180 -87 213 -37 270 57 64
127 80 196 45z m-1452 -392 c54 -108 160 -276 234 -374 l77 -101 -51 -34 c-88
-61 -208 -162 -306 -257 l-94 -92 -83 45 c-203 111 -420 324 -513 504 l-18 36
361 161 c199 89 363 162 364 162 2 1 14 -22 29 -50z m1233 -111 c1 -5 -10 -8
-23 -8 -21 0 -24 5 -30 58 -4 31 -9 66 -11 77 -3 11 11 -11 29 -50 19 -38 35
-73 35 -77z m130 -275 c51 -111 53 -117 38 -142 -24 -41 -159 -158 -191 -165
-29 -7 -29 -7 -22 31 3 21 9 115 13 210 l6 172 26 4 c77 12 72 16 130 -110z
m-322 -81 c-6 -156 -24 -321 -37 -342 -19 -31 -317 164 -419 274 l-24 26 114
55 c95 45 331 133 363 135 5 0 7 -62 3 -148z m-545 -197 c77 -73 187 -157 274
-209 64 -39 66 -36 -50 -66 -128 -32 -296 -45 -427 -31 -104 11 -232 35 -252
48 -25 15 334 323 376 323 5 0 41 -29 79 -65z"/>
</g>
</svg>
