<?xml version="1.0" standalone="no"?>
<!DOCTYPE svg PUBLIC "-//W3C//DTD SVG 20010904//EN"
 "http://www.w3.org/TR/2001/REC-SVG-20010904/DTD/svg10.dtd">
<svg version="1.0" xmlns="http://www.w3.org/2000/svg"
 width="260.000000pt" height="260.000000pt" viewBox="0 0 260.000000 260.000000"
 preserveAspectRatio="xMidYMid meet">
<metadata>
Created by potrace 1.14, written by Peter Selinger 2001-2017
</metadata>
<g transform="translate(0.000000,260.000000) scale(0.100000,-0.100000)"
fill="#000000" stroke="none">
<path d="M413 2537 c-56 -17 -101 -33 -99 -35 5 -5 181 44 203 57 29 17 5 12
-104 -22z"/>
<path d="M2098 2553 c7 -3 16 -2 19 1 4 3 -2 6 -13 5 -11 0 -14 -3 -6 -6z"/>
<path d="M2198 2523 c7 -3 16 -2 19 1 4 3 -2 6 -13 5 -11 0 -14 -3 -6 -6z"/>
<path d="M1300 2191 c-83 -29 -150 -117 -150 -195 0 -9 -8 -16 -18 -16 -16 0
-20 15 -31 105 l-13 105 -134 0 -134 0 0 -387 c0 -214 3 -472 7 -575 l6 -188
143 0 143 0 3 353 c3 343 4 353 26 402 40 86 83 119 168 130 66 8 129 -23 158
-80 20 -38 21 -59 24 -422 l3 -383 143 0 144 0 7 103 c4 56 5 249 3 427 -5
357 -10 388 -70 482 -61 96 -152 144 -290 153 -67 5 -94 2 -138 -14z"/>
<path d="M523 718 c-6 -7 -22 -33 -35 -58 -14 -25 -48 -82 -77 -128 -28 -46
-51 -85 -51 -87 0 -2 -24 -39 -52 -82 -48 -72 -133 -207 -199 -315 l-25 -43
1198 -3 c1146 -2 1199 -2 1189 15 -5 10 -41 63 -80 118 -39 55 -77 109 -84
119 -6 11 -20 26 -29 35 -10 8 -18 21 -18 28 0 7 -4 13 -10 13 -5 0 -12 11
-16 25 -3 14 -9 23 -13 21 -9 -5 -31 21 -24 28 4 3 1 6 -5 6 -7 0 -12 6 -12
13 0 6 -11 25 -25 41 -14 16 -25 35 -25 41 0 7 -7 15 -15 19 -8 3 -15 10 -15
17 0 11 -33 56 -67 91 -9 10 -13 21 -10 24 4 4 -3 16 -16 26 -17 15 -32 18
-67 14 -235 -27 -903 -29 -1168 -2 -95 9 -184 21 -198 26 -33 13 -40 13 -51
-2z"/>
</g>
</svg>
