<?xml version="1.0" encoding="iso-8859-1"?>
<!-- Uploaded to: SVG Repo, www.svgrepo.com, Generator: SVG Repo Mixer Tools -->
<!DOCTYPE svg PUBLIC "-//W3C//DTD SVG 1.1//EN" "http://www.w3.org/Graphics/SVG/1.1/DTD/svg11.dtd">
<svg fill="#000000" version="1.1" id="Capa_1" xmlns="http://www.w3.org/2000/svg" xmlns:xlink="http://www.w3.org/1999/xlink" 
	 width="800px" height="800px" viewBox="0 0 259.292 259.291"
	 xml:space="preserve">
<g>
	<g>
		<path d="M149.027,66.505V46.554c0-8.941-4.972-16.973-12.971-20.951c-3.227-1.609-6.83-2.453-10.439-2.453
			c-5.053,0-10.061,1.666-14.087,4.711L53.133,71.855c-4.359,2.06-7.95,4.753-10.691,8.073L9.323,104.888
			C3.456,109.316-0.03,116.33,0,123.68c0.027,7.335,3.567,14.331,9.463,18.702l102.22,75.84c4.065,3.003,8.887,4.6,13.94,4.6
			c3.633,0,7.274-0.87,10.529-2.51c7.95-3.993,12.88-12.01,12.88-20.902v-24.025c24.271,1.988,52.014,12.166,64.228,45.42
			c3.375,9.17,12.202,15.337,21.972,15.337c0.828,0,1.682-0.054,2.582-0.138c10.73-1.189,19.209-9.506,20.627-20.207
			c0.348-2.654,8.01-65.14-30.247-109.335C209.033,84.345,182.438,70.922,149.027,66.505z M248.449,214.481
			c-0.805,6.07-5.657,10.826-11.752,11.499c-0.498,0.054-0.99,0.084-1.471,0.084c-5.53,0-10.568-3.446-12.508-8.731
			c-16.754-45.605-59.525-52.409-83.527-52.409c-0.084,0-0.156,0-0.234,0v34.474c0,5.038-2.834,9.638-7.338,11.907
			c-4.5,2.27-9.88,1.813-13.939-1.188L15.465,134.287c-3.375-2.51-5.374-6.461-5.392-10.658c-0.012-4.204,1.955-8.164,5.311-10.698
			l34.164-25.746c1.771-2.429,4.519-4.786,8.758-6.605l59.285-44.676c4.029-3.038,9.452-3.53,13.964-1.285
			c4.537,2.255,7.389,6.884,7.389,11.935v29.015c35.074,2.822,62.492,15.396,81.617,37.485
			C256.002,153.983,248.767,212.02,248.449,214.481z"/>
		<path d="M125.464,101.63c-7.299-0.087-13.178-6.025-13.178-13.33V73.296l-39.397,29.679c-0.841,0.64-1.75,1.162-2.723,1.594
			c-0.664,0.805-1.432,1.543-2.282,2.183l-22.209,16.735l66.611,49.423v-20.549c0-6.617,4.846-12.226,11.388-13.192
			c0.64-0.09,6.491-0.906,15.51-0.906c17.282,0,51.647,3.267,78.819,26.295c-3.249-11.68-8.695-23.821-17.714-34.186
			C184.047,111.7,158.869,102.023,125.464,101.63z M139.185,128.187c-8.581,0-14.619,0.696-16.981,1.015
			c-11.406,1.675-19.996,11.644-19.996,23.173v0.516l-39.709-29.456l11.457-8.626c0.829-0.637,1.622-1.324,2.366-2.062
			c0.91-0.508,1.796-1.081,2.633-1.715l23.752-17.894c2.219,10.472,11.529,18.453,22.629,18.576
			c30.406,0.363,53.068,8.86,67.359,25.289c0.421,0.492,0.847,0.985,1.261,1.496C172.806,129.855,152.083,128.187,139.185,128.187z"
			/>
	</g>
</g>
</svg>